<?xml version="1.0" encoding="utf-8"?>
<!-- Generator: Adobe Illustrator 23.0.2, SVG Export Plug-In . SVG Version: 6.00 Build 0)  -->
<svg version="1.1" xmlns="http://www.w3.org/2000/svg" xmlns:xlink="http://www.w3.org/1999/xlink" x="0px" y="0px" width="595.3px"
	 height="841.9px" viewBox="0 0 595.3 841.9" enable-background="new 0 0 595.3 841.9" xml:space="preserve">
<g id="Coq">
	<path fill="#58595B" stroke="#000000" stroke-miterlimit="10" d="M114.9,124.3c-3.1,0-6.5,38.6-6.5,38.6h13.1
		C121.4,162.9,118,124.3,114.9,124.3z"/>
	<path fill="#58595B" stroke="#000000" stroke-miterlimit="10" d="M120.8,164.9H109c-1,0-1.9-0.8-1.9-1.9l0,0c0-2.8,2.3-5.1,5.1-5.1
		h5.4c2.8,0,5.1,2.3,5.1,5.1l0,0C122.7,164,121.9,164.9,120.8,164.9z"/>
	<path fill="#8B5E3C" stroke="#3C2415" stroke-width="4" stroke-miterlimit="10" d="M114.9,161.6C99.8,161.6,37.8,321,37.8,321
		v178.7c0,36.7,29.8,66.5,66.5,66.5h21.2c36.7,0,66.5-29.8,66.5-66.5V321C192,321,130,161.6,114.9,161.6z"/>
</g>
<g id="Features">
	<rect x="71.1" y="346.2" fill="#C49A6C" stroke="#000000" stroke-miterlimit="10" width="32.2" height="11.3"/>
	<rect x="125.8" y="346.2" fill="#C49A6C" stroke="#000000" stroke-miterlimit="10" width="32.2" height="11.3"/>
	<rect x="72.1" y="461.4" fill="#C49A6C" stroke="#000000" stroke-miterlimit="10" width="32.2" height="11.3"/>
	<rect x="126.8" y="461.4" fill="#C49A6C" stroke="#000000" stroke-miterlimit="10" width="32.2" height="11.3"/>
	<rect x="72.1" y="486.2" fill="#C49A6C" stroke="#000000" stroke-miterlimit="10" width="32.2" height="11.3"/>
	<rect x="126.8" y="486.2" fill="#C49A6C" stroke="#000000" stroke-miterlimit="10" width="32.2" height="11.3"/>
	<circle fill="#A7A9AC" stroke="#000000" stroke-miterlimit="10" cx="53.1" cy="334.8" r="9.2"/>
	<circle fill="#A7A9AC" stroke="#000000" stroke-miterlimit="10" cx="175.4" cy="334.8" r="9.2"/>
	<circle fill="#A7A9AC" stroke="#000000" stroke-miterlimit="10" cx="53.1" cy="466.5" r="9.2"/>
	<circle fill="#A7A9AC" stroke="#000000" stroke-miterlimit="10" cx="177.6" cy="466.5" r="9.2"/>
	<circle fill="#A7A9AC" stroke="#000000" stroke-miterlimit="10" cx="53.1" cy="509.2" r="9.2"/>
	<circle fill="#A7A9AC" stroke="#000000" stroke-miterlimit="10" cx="177.6" cy="509.2" r="9.2"/>
</g>
<g id="Voile">
	<g>
		<path fill="#00A14B" stroke="#000000" stroke-miterlimit="10" d="M191.3,434c-2.1,0.1-5.3,0.2-9.1,0c-12.1-0.6-20.5-3.3-24.2-4.3
			c-14.7-3.9-17.6,3.8-41.4,4.3c-23.8,0.5-28.2-7.1-44-3.3c-2.9,0.7-10.7,2.8-21.6,3.3c-4.5,0.2-8.1,0.1-10.5,0
			c-0.7,0-4.3-0.1-7.3-3c-1.9-1.9-3-4.5-3-7.3l-3-55.4c24.4-4.5,54.1-8.1,88.1-8.1c34.5,0,64.7,3.6,89.3,8.1l-2.9,55.4
			C201.6,429.4,197,434,191.3,434z"/>
	</g>
	<rect x="35.6" y="434.1" fill="#754C29" stroke="#000000" stroke-miterlimit="10" width="158.6" height="12.3"/>
	<rect x="47.2" y="430.9" fill="#6D6E71" stroke="#000000" stroke-miterlimit="10" width="5.8" height="18.8"/>
	<rect x="178.6" y="430.9" fill="#6D6E71" stroke="#000000" stroke-miterlimit="10" width="5.8" height="18.8"/>
	<circle fill="#6D6E71" stroke="#000000" stroke-miterlimit="10" cx="114.9" cy="440.3" r="11.8"/>
	<circle stroke="#000000" stroke-miterlimit="10" cx="114.9" cy="440.3" r="2.9"/>
	<g>
		<path fill="#00A14B" stroke="#000000" stroke-miterlimit="10" d="M170.8,260.1c-1.6,0-3.9,0.1-6.7,0c-9-0.2-15.2-1.3-17.9-1.6
			c-10.9-1.5-13,1.4-30.7,1.6c-17.6,0.2-20.8-2.7-32.6-1.3c-2.1,0.3-7.9,1-16,1.3c-3.3,0.1-6,0-7.8,0c-0.5,0-3.2,0-5.4-1.1
			c-1.4-0.7-2.2-1.7-2.2-2.7l-2.2-20.8c18-1.7,40.1-3,65.2-3c25.5,0,47.9,1.3,66.1,3l-2.1,20.8C178.4,258.3,175,260.1,170.8,260.1z"
			/>
	</g>
	<rect x="55.5" y="260.1" fill="#754C29" stroke="#000000" stroke-miterlimit="10" width="117.4" height="12.3"/>
	<rect x="64.5" y="256.9" fill="#6D6E71" stroke="#000000" stroke-miterlimit="10" width="5.8" height="18.8"/>
	<rect x="159.4" y="256.9" fill="#6D6E71" stroke="#000000" stroke-miterlimit="10" width="5.8" height="18.8"/>
	<circle fill="#6D6E71" stroke="#000000" stroke-miterlimit="10" cx="114" cy="266.3" r="11.8"/>
	<circle stroke="#000000" stroke-miterlimit="10" cx="114" cy="266.3" r="2.9"/>
	<g>
	</g>
	<g>
	</g>
	<g>
	</g>
	<g>
	</g>
	<g>
	</g>
	<g>
	</g>
</g>
</svg>
