<?xml version="1.0" encoding="utf-8"?>
<!-- Generator: Adobe Illustrator 23.0.2, SVG Export Plug-In . SVG Version: 6.00 Build 0)  -->
<svg version="1.1" id="Layer_1" xmlns="http://www.w3.org/2000/svg" xmlns:xlink="http://www.w3.org/1999/xlink" x="0px" y="0px"
	 width="595.3px" height="841.9px" viewBox="0 0 595.3 841.9" enable-background="new 0 0 595.3 841.9" xml:space="preserve">
<circle fill="#A7A9AC" stroke="#000000" stroke-miterlimit="10" cx="82.8" cy="112.1" r="9.2"/>
<path fill="#512525" stroke="#000000" stroke-miterlimit="10" d="M88.5,126.2l-11.4,0c-5.2,0-9.4-4.2-9.4-9.4l0-10.8
	c0-5.2,4.2-9.4,9.4-9.4h11.4c5.2,0,9.4,4.2,9.4,9.4l0,10.8C97.8,122,93.6,126.2,88.5,126.2z"/>
<path fill="#545554" stroke="#000000" stroke-miterlimit="10" d="M89.8,112.3l-3.5-42.4c0.3-0.1,0.5-0.4,0.5-0.7v-0.5
	c0-0.4-0.3-0.7-0.8-0.7h-6.5c-0.4,0-0.8,0.3-0.8,0.7v0.5c0,0.3,0.2,0.6,0.5,0.7l-3.5,42.4c0,3,2.4,5.6,5.6,6.2c0,0,0,0.1,0,0.1
	c0,0.8,0.6,1.4,1.4,1.4c0.8,0,1.4-0.6,1.4-1.4c0,0,0-0.1,0-0.1C87.4,117.9,89.8,115.4,89.8,112.3z"/>
<path fill="#545554" stroke="#000000" stroke-miterlimit="10" d="M89.1,107.6l-12.6,0c-0.4,0-0.7-0.3-0.7-0.7l0,0
	c0-0.4,0.3-0.7,0.7-0.7l12.6,0c0.4,0,0.7,0.3,0.7,0.7l0,0C89.8,107.3,89.5,107.6,89.1,107.6z"/>
<path fill="#545554" stroke="#000000" stroke-miterlimit="10" d="M88,94.5H77.5c-0.4,0-0.7-0.3-0.7-0.7v0c0-0.4,0.3-0.7,0.7-0.7
	l10.5,0c0.4,0,0.7,0.3,0.7,0.7l0,0C88.7,94.2,88.4,94.5,88,94.5z"/>
<path fill="#545554" stroke="#000000" stroke-miterlimit="10" d="M86.8,79.1l-8.1,0c-0.4,0-0.7-0.3-0.7-0.7l0,0
	c0-0.4,0.3-0.7,0.7-0.7h8.1c0.4,0,0.7,0.3,0.7,0.7l0,0C87.6,78.7,87.2,79.1,86.8,79.1z"/>
<g>
</g>
<g>
</g>
<g>
</g>
<g>
</g>
<g>
</g>
<g>
</g>
</svg>
